# xmcd
#
# Track frame offsets:
#	150
#	9546
#	18030
#	28545
#	39304
#	52008
#	62380
#	73914
#	83463
#	92682
#	99913
#	109778
#	118085
#	126351
#	135206
#	144226
#	152886
#	162814
#	171452
#	179327
#	190543
#	199146
#	207722
#	217919
#	227229
#	239552
#
# Disc length: 3295 seconds
#
# Revision: 0
# Processed by: cddbd v1.5.2PL0 Copyright (c) Steve Scherf et al.
# Submitted via: audiograbber 1.83.01
#
DISCID=5e0cdd1a
DTITLE=Red Foley and His Crossroad Boys - Stay A Little Longer
DYEAR=1900
DGENRE=
TTITLE0=Sugar Foot Rag No. 2
TTITLE1=Old Joe Clark
TTITLE2=Whistling Boogie Man
TTITLE3=Hillbilly Fever
TTITLE4=Who? Me? (If You Don't Talk Too Much)
TTITLE5=Pinball Boogie
TTITLE6=Look Who's Talkin'
TTITLE7=The Blue Tail Fly
TTITLE8=The Hot Dog Rag
TTITLE9=Freight Train Boogie
TTITLE10=John Henry
TTITLE11=Hobo Boogie
TTITLE12=Fireball Mail
TTITLE13=Old Kentucky Fox Chase
TTITLE14=Milk Bucket Boogie
TTITLE15=I Gotta See Texas Once More
TTITLE16=Honey Song
TTITLE17=Whoa Mule
TTITLE18=Salty Dog Rag
TTITLE19=New River Train
TTITLE20=Home in San Antone
TTITLE21=Rockin' Chair Money
TTITLE22=Square Dance Tennessee
TTITLE23=Hearts Of Stone
TTITLE24=Knockin' on Down the Road
TTITLE25=Stay a Little Longer
EXTD=
EXTT0=
EXTT1=
EXTT2=
EXTT3=
EXTT4=
EXTT5=
EXTT6=
EXTT7=
EXTT8=
EXTT9=
EXTT10=
EXTT11=
EXTT12=
EXTT13=
EXTT14=
EXTT15=
EXTT16=
EXTT17=
EXTT18=
EXTT19=
EXTT20=
EXTT21=
EXTT22=
EXTT23=
EXTT24=
EXTT25=
PLAYORDER=
